<?xml version="1.0" encoding="UTF-8" standalone="no"?>
<svg
   xmlns:dc="http://purl.org/dc/elements/1.1/"
   xmlns:cc="http://creativecommons.org/ns#"
   xmlns:rdf="http://www.w3.org/1999/02/22-rdf-syntax-ns#"
   xmlns:svg="http://www.w3.org/2000/svg"
   xmlns="http://www.w3.org/2000/svg"
   xmlns:sodipodi="http://sodipodi.sourceforge.net/DTD/sodipodi-0.dtd"
   xmlns:inkscape="http://www.inkscape.org/namespaces/inkscape"
   sodipodi:docname="currency_logo.svg"
   inkscape:version="1.0 (4035a4fb49, 2020-05-01)"
   id="svg8"
   version="1.1"
   viewBox="0 0 180.26801 41.347"
   height="41.347mm"
   width="180.26801mm">
  <defs
     id="defs2" />
  <sodipodi:namedview
     inkscape:window-maximized="1"
     inkscape:window-y="-9"
     inkscape:window-x="-9"
     inkscape:window-height="1001"
     inkscape:window-width="1920"
     showgrid="false"
     inkscape:document-rotation="0"
     inkscape:current-layer="text835"
     inkscape:document-units="mm"
     inkscape:cy="174.83958"
     inkscape:cx="284.76825"
     inkscape:zoom="1.979899"
     inkscape:pageshadow="2"
     inkscape:pageopacity="0.0"
     borderopacity="1.0"
     bordercolor="#666666"
     pagecolor="#ffffff"
     id="base" />
  <metadata
     id="metadata5">
    <rdf:RDF>
      <cc:Work
         rdf:about="">
        <dc:format>image/svg+xml</dc:format>
        <dc:type
           rdf:resource="http://purl.org/dc/dcmitype/StillImage" />
        <dc:title></dc:title>
      </cc:Work>
    </rdf:RDF>
  </metadata>
  <g
     id="layer1"
     inkscape:groupmode="layer"
     inkscape:label="Livello 1">
    <g
       style="font-style:normal;font-variant:normal;font-weight:normal;font-stretch:normal;font-size:31.75px;line-height:1.25;font-family:Ubuntu;-inkscape-font-specification:'Ubuntu, Normal';font-variant-ligatures:normal;font-variant-caps:normal;font-variant-numeric:normal;font-variant-east-asian:normal;fill:#000000;fill-opacity:1;stroke:none;stroke-width:0.264583"
       id="text835"
       aria-label="Currency API">
      <path
         id="path837"
         style="font-style:normal;font-variant:normal;font-weight:normal;font-stretch:normal;font-size:31.75px;font-family:Ubuntu;-inkscape-font-specification:'Ubuntu, Normal';font-variant-ligatures:normal;font-variant-caps:normal;font-variant-numeric:normal;font-variant-east-asian:normal;fill:#4d4d4d;stroke-width:0.264583"
         d="m 10.4505,23.107 q -2.3177499,0 -4.2227499,-0.762 -1.905,-0.762 -3.27025,-2.2225 Q 1.5922501,18.662 0.83024996,16.53475 0.1,14.37575 0.1,11.6135 q 0,-2.76225 0.82550006,-4.8894999 0.85725004,-2.159 2.28600004,-3.6195 1.42875,-1.4605 3.33375,-2.2225001 1.905,-0.762 4.0639999,-0.762 1.36525,0 2.44475,0.1905 1.11125,0.1905 1.905,0.4445 0.8255,0.254 1.3335,0.508 0.508,0.254 0.6985,0.3810001 l -0.889,2.54 q -0.28575,-0.1905 -0.8255,-0.41275 -0.53975,-0.22225 -1.23825,-0.4445 -0.66675,-0.22225 -1.49225,-0.34925 -0.79375,-0.15875 -1.61925,-0.15875 -1.7462499,0 -3.1432499,0.60325 -1.397,0.60325 -2.38125,1.74625 -0.98425,1.143 -1.524,2.7939998 -0.508,1.6192501 -0.508,3.6512501 0,1.9685 0.4445,3.58775 0.47625,1.61925 1.397,2.794 0.92075,1.143 2.286,1.778 1.397,0.635 3.2384999,0.635 2.12725,0 3.52425,-0.4445 1.397,-0.4445 2.0955,-0.79375 l 0.79375,2.54 Q 16.9275,21.86875 16.356,22.12275 15.7845,22.345 14.92725,22.56725 14.07,22.7895 12.927,22.94825 11.784,23.107 10.4505,23.107 Z" />
      <path
         id="path841"
         style="font-style:normal;font-variant:normal;font-weight:normal;font-stretch:normal;font-size:31.75px;font-family:Ubuntu;-inkscape-font-specification:'Ubuntu, Normal';font-variant-ligatures:normal;font-variant-caps:normal;font-variant-numeric:normal;font-variant-east-asian:normal;fill:#4d4d4d;stroke-width:0.264583"
         d="m 44.163543,5.7715001 q 0.381,0 0.85725,0.0635 0.508,0.0317 0.98425,0.127 0.47625,0.0635 0.85725,0.15875 0.41275,0.0635 0.60325,0.127 l -0.508,2.5717499 q -0.34925,-0.127 -1.17475,-0.28575 -0.79375,-0.1905 -2.06375,-0.1905 -0.8255,0 -1.651,0.1905 -0.79375,0.15875 -1.04775,0.22225 v 13.87475 h -2.95275 V 6.8192501 q 1.04775,-0.381 2.6035,-0.6985 1.55575,-0.34925 3.4925,-0.34925 z" />
      <path
         id="path843"
         style="font-style:normal;font-variant:normal;font-weight:normal;font-stretch:normal;font-size:31.75px;font-family:Ubuntu;-inkscape-font-specification:'Ubuntu, Normal';font-variant-ligatures:normal;font-variant-caps:normal;font-variant-numeric:normal;font-variant-east-asian:normal;fill:#4d4d4d;stroke-width:0.264583"
         d="m 56.441863,5.7715001 q 0.381,0 0.85725,0.0635 0.508,0.0317 0.98425,0.127 0.47625,0.0635 0.85725,0.15875 0.41275,0.0635 0.60325,0.127 l -0.508,2.5717499 q -0.34925,-0.127 -1.17475,-0.28575 -0.79375,-0.1905 -2.06375,-0.1905 -0.8255,0 -1.651,0.1905 -0.79375,0.15875 -1.04775,0.22225 v 13.87475 h -2.95275 V 6.8192501 q 1.04775,-0.381 2.6035,-0.6985 1.55575,-0.34925 3.4925,-0.34925 z" />
      <path
         id="path845"
         style="font-style:normal;font-variant:normal;font-weight:normal;font-stretch:normal;font-size:31.75px;font-family:Ubuntu;-inkscape-font-specification:'Ubuntu, Normal';font-variant-ligatures:normal;font-variant-caps:normal;font-variant-numeric:normal;font-variant-east-asian:normal;fill:#4d4d4d;stroke-width:0.264583"
         d="m 61.703434,14.4075 q 0,-2.19075 0.635,-3.81 0.635,-1.651 1.68275,-2.7305001 1.04775,-1.0794998 2.413,-1.6192498 1.36525,-0.53975 2.794,-0.53975 3.33375,0 5.11175,2.0954998 1.778,2.0637501 1.778,6.3182501 0,0.1905 0,0.508 0,0.28575 -0.03175,0.53975 h -11.303 q 0.1905,2.57175 1.49225,3.90525 1.30175,1.3335 4.064,1.3335 1.55575,0 2.6035,-0.254 1.0795,-0.28575 1.61925,-0.53975 l 0.41275,2.4765 q -0.53975,0.28575 -1.905,0.60325 -1.3335,0.3175 -3.048,0.3175 -2.159,0 -3.7465,-0.635 -1.55575,-0.66675 -2.57175,-1.80975 -1.016,-1.143 -1.524,-2.69875 -0.47625,-1.5875 -0.47625,-3.46075 z m 11.33475,-1.61925 q 0.03175,-2.00025 -1.016,-3.27025 -1.016,-1.3017501 -2.82575,-1.3017501 -1.016,0 -1.80975,0.4127501 -0.762,0.381 -1.30175,1.016 -0.53975,0.635 -0.85725,1.4605 -0.28575,0.8255 -0.381,1.68275 z" />
      <path
         id="path847"
         style="font-style:normal;font-variant:normal;font-weight:normal;font-stretch:normal;font-size:31.75px;font-family:Ubuntu;-inkscape-font-specification:'Ubuntu, Normal';font-variant-ligatures:normal;font-variant-caps:normal;font-variant-numeric:normal;font-variant-east-asian:normal;fill:#4d4d4d;stroke-width:0.264583"
         d="m 80.359535,6.5970001 q 1.016,-0.254 2.69875,-0.53975 1.68275,-0.28575 3.8735,-0.28575 1.968497,0 3.270247,0.5715 1.30175,0.53975 2.06375,1.5557498 0.79375,0.9842501 1.11125,2.3812501 0.3175,1.397 0.3175,3.07975 v 9.271 h -2.95275 v -8.636 q 0,-1.524 -0.22225,-2.6035 -0.1905,-1.0795 -0.66675,-1.74625 -0.47625,-0.66675 -1.27,-0.9525 -0.79375,-0.3175 -1.968497,-0.3175 -0.47625,0 -0.98425,0.0317 -0.508,0.0318 -0.98425,0.0953 -0.4445,0.0317 -0.8255,0.0952 -0.34925,0.0635 -0.508,0.0952 v 13.93825 h -2.95275 z" />
      <path
         id="path849"
         style="font-style:normal;font-variant:normal;font-weight:normal;font-stretch:normal;font-size:31.75px;font-family:Ubuntu;-inkscape-font-specification:'Ubuntu, Normal';font-variant-ligatures:normal;font-variant-caps:normal;font-variant-numeric:normal;font-variant-east-asian:normal;fill:#4d4d4d;stroke-width:0.264583"
         d="m 105.76648,23.01175 q -2.00025,0 -3.52425,-0.635 -1.49225,-0.635 -2.539995,-1.778 -1.016003,-1.143 -1.524003,-2.69875 -0.508,-1.5875 -0.508,-3.4925 0,-1.905 0.53975,-3.4925 0.5715,-1.5875 1.587503,-2.7305001 1.015995,-1.1747498 2.476495,-1.8097498 1.49225,-0.66675 3.302,-0.66675 1.11125,0 2.2225,0.1905 1.11125,0.1905 2.12725,0.60325 L 109.25898,9.01 q -0.66675,-0.3175 -1.55575,-0.508 -0.85725,-0.1905 -1.8415,-0.1905 -2.4765,0 -3.81,1.55575 -1.30175,1.55575 -1.30175,4.54025 0,1.3335 0.28575,2.44475 0.3175,1.11125 0.9525,1.905 0.66675,0.79375 1.68275,1.23825 1.016,0.41275 2.4765,0.41275 1.17475,0 2.12725,-0.22225 0.9525,-0.22225 1.49225,-0.47625 l 0.41275,2.4765 q -0.254,0.15875 -0.73025,0.3175 -0.47625,0.127 -1.0795,0.22225 -0.60325,0.127 -1.30175,0.1905 -0.66675,0.0952 -1.30175,0.0952 z" />
      <path
         id="path851"
         style="font-style:normal;font-variant:normal;font-weight:normal;font-stretch:normal;font-size:31.75px;font-family:Ubuntu;-inkscape-font-specification:'Ubuntu, Normal';font-variant-ligatures:normal;font-variant-caps:normal;font-variant-numeric:normal;font-variant-east-asian:normal;fill:#4d4d4d;stroke-width:0.264583"
         d="m 111.78509,25.7105 q 0.34925,0.15875 0.889,0.28575 0.5715,0.15875 1.11125,0.15875 1.74625,0 2.7305,-0.79375 0.98425,-0.762 1.778,-2.50825 -2.00025,-3.81 -3.7465,-8.0645 -1.7145,-4.28625 -2.8575,-8.6677499 h 3.175 q 0.34925,1.42875 0.8255,3.0797499 0.508,1.651 1.11125,3.39725 0.60325,1.74625 1.30175,3.4925 0.6985,1.74625 1.4605,3.3655 1.2065,-3.33375 2.0955,-6.604 0.889,-3.27025 1.68275,-6.7309999 h 3.048 q -1.143,4.6672499 -2.54,8.9852499 -1.397,4.28625 -3.01625,8.03275 -0.635,1.42875 -1.3335,2.44475 -0.66675,1.04775 -1.49225,1.7145 -0.8255,0.66675 -1.87325,0.98425 -1.016,0.3175 -2.31775,0.3175 -0.34925,0 -0.73025,-0.0635 -0.381,-0.0317 -0.762,-0.127 -0.34925,-0.0635 -0.66675,-0.15875 -0.28575,-0.0952 -0.41275,-0.15875 z" />
      <path
         id="path853"
         style="font-style:normal;font-variant:normal;font-weight:normal;font-stretch:normal;font-size:31.75px;font-family:Ubuntu;-inkscape-font-specification:'Ubuntu, Normal';font-variant-ligatures:normal;font-variant-caps:normal;font-variant-numeric:normal;font-variant-east-asian:normal;stroke-width:0.264583"
         d="m 151.68095,22.63075 q -0.53975,-1.42875 -1.016,-2.794 -0.47625,-1.397 -0.98425,-2.82575 h -9.9695 l -2.00025,5.61975 h -3.20675 q 1.27,-3.4925 2.38125,-6.44525 1.11125,-2.9845 2.159,-5.6515 1.0795,-2.6670001 2.12725,-5.0799999 1.04775,-2.44475 2.19075,-4.8260001 h 2.82575 q 1.143,2.3812501 2.19075,4.8260001 1.04775,2.4129998 2.0955,5.0799999 1.0795,2.667 2.19075,5.6515 1.11125,2.95275 2.38125,6.44525 z M 148.7917,14.471 q -1.016,-2.76225 -2.032,-5.334 -0.98425,-2.6034999 -2.06375,-4.9847499 -1.11125,2.38125 -2.12725,4.9847499 -0.98425,2.57175 -1.9685,5.334 z" />
      <path
         id="path855"
         style="font-style:normal;font-variant:normal;font-weight:normal;font-stretch:normal;font-size:31.75px;font-family:Ubuntu;-inkscape-font-specification:'Ubuntu, Normal';font-variant-ligatures:normal;font-variant-caps:normal;font-variant-numeric:normal;font-variant-east-asian:normal;stroke-width:0.264583"
         d="m 163.84467,0.40575 q 4.6355,0 7.112,1.7780001 2.50825,1.74625 2.50825,5.23875 0,1.9049999 -0.6985,3.2702499 -0.66675,1.3335 -1.9685,2.19075 -1.27,0.8255 -3.1115,1.2065 -1.8415,0.381 -4.15925,0.381 h -2.44475 v 8.15975 h -3.07975 V 0.9455 q 1.30175,-0.3175 2.88925,-0.41275 1.61925,-0.127 2.95275,-0.127 z m 0.254,2.6987501 q -1.9685,0 -3.01625,0.0952 V 11.8357 h 2.31775 q 1.5875,0 2.8575,-0.1905 1.27,-0.22225 2.12725,-0.6985 0.889,-0.508 1.36525,-1.36525 0.47625,-0.85725 0.47625,-2.1907499 0,-1.27 -0.508,-2.0955 -0.47625,-0.8255 -1.3335,-1.30175 -0.8255,-0.508 -1.93675,-0.6985 -1.11125,-0.1905 -2.3495,-0.1905 z" />
      <path
         id="path857"
         style="font-style:normal;font-variant:normal;font-weight:normal;font-stretch:normal;font-size:31.75px;font-family:Ubuntu;-inkscape-font-specification:'Ubuntu, Normal';font-variant-ligatures:normal;font-variant-caps:normal;font-variant-numeric:normal;font-variant-east-asian:normal;stroke-width:0.264583"
         d="m 177.28831,0.628 h 3.07975 v 22.00275 h -3.07975 z" />
      <path
         transform="matrix(0.32516433,0,0,0.39097845,13.075913,-37.894799)"
         inkscape:transform-center-y="2.7952855"
         d="m 42.228585,155.55087 -24.766455,-42.89675 49.532908,-1e-5 z"
         inkscape:randomized="0"
         inkscape:rounded="0"
         inkscape:flatsided="true"
         sodipodi:arg2="2.6179939"
         sodipodi:arg1="1.5707963"
         sodipodi:r2="14.298919"
         sodipodi:r1="28.597837"
         sodipodi:cy="126.95303"
         sodipodi:cx="42.228584"
         sodipodi:sides="3"
         id="path894"
         style="fill:#ec4b5b;stroke-width:0.441"
         sodipodi:type="star" />
      <text
         id="text898"
         y="41.199463"
         x="55.27681"
         style="font-style:normal;font-variant:normal;font-weight:normal;font-stretch:normal;font-size:22.2624px;line-height:1.25;font-family:Ubuntu;-inkscape-font-specification:'Ubuntu, Normal';font-variant-ligatures:normal;font-variant-caps:normal;font-variant-numeric:normal;font-variant-east-asian:normal;fill:#15d3a1;fill-opacity:1;stroke:none;stroke-width:0.147257"
         xml:space="preserve"><tspan
           style="font-style:normal;font-variant:normal;font-weight:normal;font-stretch:normal;font-size:22.2624px;font-family:Ubuntu;-inkscape-font-specification:'Ubuntu, Normal';font-variant-ligatures:normal;font-variant-caps:normal;font-variant-numeric:normal;font-variant-east-asian:normal;fill:#15d3a1;fill-opacity:1;stroke-width:0.147257"
           y="41.199463"
           x="55.27681"
           id="tspan896"
           sodipodi:role="line">trend</tspan></text>
    </g>
  </g>
</svg>
